<?xml version="1.0" encoding="UTF-8"?>
<svg xmlns="http://www.w3.org/2000/svg"
     version="1.1"
     viewBox="0 0 800 800"
     role="img"
     aria-labelledby="icon-sorrow-mono-title">
  <title id="icon-sorrow-mono-title">Icon of Sorrow</title>
  <!-- Uncolored line art (black). Recolor in your editor as needed. -->
  <g fill="none"
     stroke="#000000"
     stroke-width="24"
     stroke-linecap="round"
     stroke-linejoin="round"
     stroke-miterlimit="10">
    <path d="M 77.87,271.83
             C 114.65,320.62 173.62,355.43 241.92,375.92
               242.18,445.42 241.62,489.34 241.62,519.54
             M 552.93,525.53
             C 552.93,491.47 552.54,418.44 552.27,375.75
               620.50,355.13 679.93,319.99 718.00,270.00
               558.47,109.15 224.41,116.60 78.00,270.00" />
    <path d="M 324.58,606.78
             C 324.58,583.00 324.43,404.94 324.30,366.51
               301.90,349.25 286.21,324.31 280.52,294.00
               278.57,283.60 277.31,274.64 278.34,264.00
               284.39,201.44 325.27,162.80 386.00,152.86
               399.75,151.16 412.57,152.52 426.00,155.79
               516.76,177.96 549.25,292.47 481.92,357.82
               478.71,360.94 475.37,363.82 471.90,366.47
               472.22,407.51 472.54,565.86 472.54,607.63" />
    <path d="M 372.94,650.02
             C 372.94,588.98 372.67,359.63 372.91,316.01
               357.67,306.29 347.30,288.66 349.11,269.97
               351.41,246.27 368.31,230.24 390.76,224.90
               442.70,217.81 470.42,283.48 426.76,314.70
               426.64,363.49 426.83,594.12 426.83,650.02" />
  </g>
</svg>
